<svg width="54" height="34" viewBox="0 0 54 34" fill="none" xmlns="http://www.w3.org/2000/svg">
<g filter="url(#filter0_d_0_116)">
<path fill-rule="evenodd" clip-rule="evenodd" d="M30.4751 6.69368C33.7743 6.69278 33.9455 6.69274 34.116 6.70425L34.1445 6.70625C34.1722 6.70822 34.2038 6.71048 34.2509 6.71306L33.62 5.13431C32.6355 2.67065 30.2865 1.07874 27.6356 1.07874H23.5277L25.2107 6.69448C27.5244 6.69448 29.2211 6.69402 30.4701 6.69368H30.4721L30.4751 6.69368ZM12.8822 6.69448L14.0044 1.07882H8.43909C7.87526 1.07882 7.3769 1.44562 7.20872 1.98428C6.6242 3.85659 6.19713 5.22384 5.88491 6.22337L5.73773 6.69456H12.8822V6.69448ZM20.8361 1.07882L22.5191 6.69448H15.5116L16.6335 1.07882H20.8361ZM12.65 13.5828V9.27504H5.00408C4.9994 9.59625 4.99973 10.3776 5.00057 12.3813L5.00073 12.7777H6.46262C7.17452 12.7777 7.75168 13.3554 7.75168 14.068C7.75168 14.7806 7.17452 15.3583 6.46262 15.3583H5.00151L5.00168 16.9927C5.00168 19.0515 6.61567 20.7394 8.64362 20.8566C8.36115 17.7743 10.0052 14.9355 12.65 13.5828ZM46.2531 14.0056C46.2182 14.7466 46.808 15.3583 47.5407 15.3583H48.986C48.8225 17.5831 47.4162 19.551 45.3864 20.4081C45.5164 16.1965 42.1307 12.7777 38.0016 12.7777C33.6855 12.7777 30.2399 16.4959 30.6441 20.8637H23.359C23.7898 16.2086 19.8561 12.3328 15.2281 12.8181V9.27504H22.9624V10.7374C22.9624 11.4707 23.5735 12.0612 24.3138 12.0263C25.0072 11.9936 25.5406 11.3957 25.5406 10.7009V9.27504H33.8413L46.8975 9.99117C47.4393 10.0209 47.9047 10.3876 48.0614 10.9076L48.2568 11.556L48.2579 11.5598C48.4208 12.1 48.5382 12.4894 48.6242 12.7777H47.5771C46.883 12.7777 46.2857 13.3116 46.2531 14.0056ZM37.2996 24.9409C39.4624 25.2587 41.5451 24.0809 42.4116 22.1015C43.8005 18.9247 41.4593 15.3583 38.0017 15.3583C35.0864 15.3583 32.8208 17.9486 33.2391 20.8637C33.5392 22.9534 35.1923 24.6316 37.2996 24.9409ZM11.239 20.8637C10.8196 17.9402 13.0959 15.3583 16.0016 15.3583C18.919 15.3583 21.1822 17.9509 20.7642 20.8636C20.5232 22.5414 19.402 23.9926 17.8019 24.6417C15.9655 25.3866 13.8648 24.9242 12.5019 23.4769C11.4851 22.3973 11.3041 21.2505 11.2556 20.9432C11.2474 20.8916 11.243 20.8637 11.239 20.8637Z" fill="#26B5C0"/>
<path d="M34.116 6.70425L34.151 6.20547L34.1497 6.20539L34.116 6.70425ZM30.4751 6.69368L30.475 6.19368L30.4749 6.19368L30.4751 6.69368ZM34.1445 6.70625L34.1801 6.20752L34.1795 6.20747L34.1445 6.70625ZM34.2509 6.71306L34.2234 7.21231L35.006 7.25527L34.7152 6.52752L34.2509 6.71306ZM33.62 5.13431L34.0843 4.94877L34.0843 4.94877L33.62 5.13431ZM23.5277 1.07874V0.578735H22.8558L23.0487 1.22228L23.5277 1.07874ZM25.2107 6.69448L24.7318 6.83802L24.8386 7.19448H25.2107V6.69448ZM30.4701 6.69368L30.4701 6.19368L30.47 6.19368L30.4701 6.69368ZM30.4721 6.69368L30.4721 7.19368L30.4723 7.19368L30.4721 6.69368ZM14.0044 1.07882L14.4947 1.1768L14.6142 0.578821H14.0044V1.07882ZM12.8822 6.69448L12.3919 6.5965L12.3822 6.64501V6.69448H12.8822ZM7.20872 1.98428L6.73145 1.83527L6.73144 1.83528L7.20872 1.98428ZM5.88491 6.22337L5.40766 6.07429L5.40765 6.07429L5.88491 6.22337ZM5.73773 6.69456L5.26047 6.54549L5.05773 7.19456H5.73773V6.69456ZM12.8822 6.69456V7.19456H13.3822V6.69456H12.8822ZM22.5191 6.69448V7.19448H23.1909L22.998 6.55094L22.5191 6.69448ZM20.8361 1.07882L21.315 0.93528L21.2082 0.578821H20.8361V1.07882ZM15.5116 6.69448L15.0213 6.59652L14.9018 7.19448H15.5116V6.69448ZM16.6335 1.07882V0.578821H16.2235L16.1432 0.980865L16.6335 1.07882ZM12.65 9.27504H13.15V8.77504H12.65V9.27504ZM12.65 13.5828L12.8777 14.028L13.15 13.8887V13.5828H12.65ZM5.00408 9.27504V8.77504H4.51133L4.50414 9.26774L5.00408 9.27504ZM5.00057 12.3813L5.50057 12.3811L5.50057 12.3811L5.00057 12.3813ZM5.00073 12.7777L4.50073 12.7779L4.50094 13.2777H5.00073V12.7777ZM5.00151 15.3583V14.8583H4.50145L4.50151 15.3584L5.00151 15.3583ZM5.00168 16.9927L5.50168 16.9927L5.50168 16.9927L5.00168 16.9927ZM8.64362 20.8566L8.61476 21.3558L9.19454 21.3893L9.14154 20.811L8.64362 20.8566ZM46.2531 14.0056L46.7525 14.0291L46.7525 14.0291L46.2531 14.0056ZM48.986 15.3583L49.4847 15.395L49.5241 14.8583H48.986V15.3583ZM45.3864 20.4081L44.8866 20.3927L44.8625 21.172L45.5809 20.8687L45.3864 20.4081ZM30.6441 20.8637V21.3637H31.1925L31.1419 20.8176L30.6441 20.8637ZM23.359 20.8637L22.8612 20.8176L22.8106 21.3637H23.359V20.8637ZM15.2281 12.8181H14.7281V13.3733L15.2802 13.3154L15.2281 12.8181ZM15.2281 9.27504V8.77504H14.7281V9.27504H15.2281ZM22.9624 9.27504H23.4624V8.77504H22.9624V9.27504ZM24.3138 12.0263L24.2903 11.5268L24.2902 11.5268L24.3138 12.0263ZM25.5406 9.27504V8.77504H25.0406V9.27504H25.5406ZM33.8413 9.27504L33.8687 8.77579L33.855 8.77504H33.8413V9.27504ZM46.8975 9.99117L46.9249 9.49192L46.9249 9.49192L46.8975 9.99117ZM48.0614 10.9076L47.5826 11.0519L47.5826 11.0519L48.0614 10.9076ZM48.2568 11.556L48.7357 11.4122L48.7355 11.4117L48.2568 11.556ZM48.2579 11.5598L47.7791 11.7036L47.7792 11.7041L48.2579 11.5598ZM48.6242 12.7777V13.2777H49.295L49.1033 12.6348L48.6242 12.7777ZM42.4116 22.1015L42.8696 22.302L42.8697 22.3018L42.4116 22.1015ZM37.2996 24.9409L37.3722 24.4462L37.3722 24.4462L37.2996 24.9409ZM33.2391 20.8637L32.7442 20.9347L32.7442 20.9348L33.2391 20.8637ZM11.239 20.8637L10.7441 20.9347L10.8056 21.3637H11.239V20.8637ZM20.7642 20.8636L21.2592 20.9347L21.2592 20.9346L20.7642 20.8636ZM17.8019 24.6417L17.614 24.1783L17.6139 24.1783L17.8019 24.6417ZM12.5019 23.4769L12.1379 23.8197L12.1379 23.8197L12.5019 23.4769ZM11.2556 20.9432L11.7495 20.8652L11.7495 20.8652L11.2556 20.9432ZM34.1497 6.20539C33.9568 6.19236 33.7555 6.19279 30.475 6.19368L30.4753 7.19368C33.7931 7.19278 33.9343 7.19312 34.0823 7.20312L34.1497 6.20539ZM34.1795 6.20747L34.151 6.20547L34.0811 7.20303L34.1096 7.20503L34.1795 6.20747ZM34.2783 6.21381C34.2354 6.21146 34.207 6.20943 34.1801 6.20752L34.109 7.20498C34.1373 7.207 34.1722 7.2095 34.2234 7.21231L34.2783 6.21381ZM33.1557 5.31984L33.7865 6.89859L34.7152 6.52752L34.0843 4.94877L33.1557 5.31984ZM27.6356 1.57874C30.0817 1.57874 32.247 3.04589 33.1557 5.31984L34.0843 4.94877C33.024 2.29541 30.4912 0.578735 27.6356 0.578735V1.57874ZM23.5277 1.57874H27.6356V0.578735H23.5277V1.57874ZM25.6897 6.55093L24.0066 0.935189L23.0487 1.22228L24.7318 6.83802L25.6897 6.55093ZM30.47 6.19368C29.221 6.19402 27.5243 6.19448 25.2107 6.19448V7.19448C27.5244 7.19448 29.2212 7.19402 30.4703 7.19368L30.47 6.19368ZM30.4721 6.19368H30.4701V7.19368H30.4721V6.19368ZM30.4749 6.19368L30.4719 6.19368L30.4723 7.19368L30.4754 7.19368L30.4749 6.19368ZM13.5141 0.980844L12.3919 6.5965L13.3725 6.79245L14.4947 1.1768L13.5141 0.980844ZM8.43909 1.57882H14.0044V0.578821H8.43909V1.57882ZM7.686 2.1333C7.78908 1.80314 8.0943 1.57882 8.43909 1.57882V0.578821C7.65621 0.578821 6.96473 1.08809 6.73145 1.83527L7.686 2.1333ZM6.36217 6.37245C6.67439 5.37291 7.10147 4.00563 7.68601 2.13329L6.73144 1.83528C6.14693 3.70755 5.71987 5.07477 5.40766 6.07429L6.36217 6.37245ZM6.21499 6.84364L6.36217 6.37244L5.40765 6.07429L5.26047 6.54549L6.21499 6.84364ZM12.8822 6.19456H5.73773V7.19456H12.8822V6.19456ZM12.3822 6.69448V6.69456H13.3822V6.69448H12.3822ZM22.998 6.55094L21.315 0.93528L20.3571 1.22236L22.0401 6.83802L22.998 6.55094ZM15.5116 7.19448H22.5191V6.19448H15.5116V7.19448ZM16.1432 0.980865L15.0213 6.59652L16.0019 6.79243L17.1238 1.17678L16.1432 0.980865ZM20.8361 0.578821H16.6335V1.57882H20.8361V0.578821ZM12.15 9.27504V13.5828H13.15V9.27504H12.15ZM5.00408 9.77504H12.65V8.77504H5.00408V9.77504ZM5.50057 12.3811C5.49972 10.3739 5.49942 9.59861 5.50403 9.28233L4.50414 9.26774C4.49938 9.59389 4.49973 10.3812 4.50057 12.3815L5.50057 12.3811ZM5.50073 12.7775L5.50057 12.3811L4.50057 12.3815L4.50073 12.7779L5.50073 12.7775ZM6.46262 12.2777H5.00073V13.2777H6.46262V12.2777ZM8.25168 14.068C8.25168 13.0797 7.45112 12.2777 6.46262 12.2777V13.2777C6.89792 13.2777 7.25168 13.6311 7.25168 14.068H8.25168ZM6.46262 15.8583C7.45112 15.8583 8.25168 15.0563 8.25168 14.068H7.25168C7.25168 14.5049 6.89792 14.8583 6.46262 14.8583V15.8583ZM5.00151 15.8583H6.46262V14.8583H5.00151V15.8583ZM5.50168 16.9927L5.50151 15.3583L4.50151 15.3584L4.50168 16.9928L5.50168 16.9927ZM8.67248 20.3575C6.90764 20.2554 5.50168 18.7852 5.50168 16.9927H4.50168C4.50168 19.3178 6.3237 21.2233 8.61476 21.3558L8.67248 20.3575ZM12.4224 13.1377C9.60013 14.5811 7.84413 17.6115 8.14571 20.9023L9.14154 20.811C8.87816 17.9371 10.4103 15.2899 12.8777 14.028L12.4224 13.1377ZM47.5407 14.8583C47.0925 14.8583 46.7311 14.4842 46.7525 14.0291L45.7536 13.9821C45.7053 15.009 46.5235 15.8583 47.5407 15.8583V14.8583ZM48.986 14.8583H47.5407V15.8583H48.986V14.8583ZM45.5809 20.8687C47.7856 19.9378 49.3075 17.8048 49.4847 15.395L48.4874 15.3216C48.3375 17.3613 47.0468 19.1642 45.1919 19.9475L45.5809 20.8687ZM38.0016 13.2777C41.8511 13.2777 45.0078 16.4657 44.8866 20.3927L45.8861 20.4235C46.0249 15.9273 42.4104 12.2777 38.0016 12.2777V13.2777ZM31.1419 20.8176C30.7651 16.7447 33.9779 13.2777 38.0016 13.2777V12.2777C33.393 12.2777 29.7147 16.247 30.1462 20.9098L31.1419 20.8176ZM23.359 21.3637H30.6441V20.3637H23.359V21.3637ZM15.2802 13.3154C19.5945 12.863 23.2628 16.4765 22.8612 20.8176L23.8569 20.9097C24.3167 15.9408 20.1178 11.8027 15.1759 12.3208L15.2802 13.3154ZM14.7281 9.27504V12.8181H15.7281V9.27504H14.7281ZM22.9624 8.77504H15.2281V9.77504H22.9624V8.77504ZM23.4624 10.7374V9.27504H22.4624V10.7374H23.4624ZM24.2902 11.5268C23.8369 11.5482 23.4624 11.1872 23.4624 10.7374H22.4624C22.4624 11.7543 23.3102 12.5742 24.3374 12.5257L24.2902 11.5268ZM25.0406 10.7009C25.0406 11.148 24.6981 11.5076 24.2903 11.5268L24.3374 12.5257C25.3162 12.4796 26.0406 11.6435 26.0406 10.7009H25.0406ZM25.0406 9.27504V10.7009H26.0406V9.27504H25.0406ZM33.8413 8.77504H25.5406V9.77504H33.8413V8.77504ZM46.9249 9.49192L33.8687 8.77579L33.8139 9.77429L46.8701 10.4904L46.9249 9.49192ZM48.5401 10.7634C48.3229 10.0424 47.6774 9.53325 46.9249 9.49192L46.8701 10.4904C47.2012 10.5086 47.4865 10.7329 47.5826 11.0519L48.5401 10.7634ZM48.7355 11.4117L48.5401 10.7633L47.5826 11.0519L47.7781 11.7003L48.7355 11.4117ZM48.7368 11.416L48.7357 11.4122L47.7779 11.6998L47.7791 11.7036L48.7368 11.416ZM49.1033 12.6348C49.0171 12.3456 48.8994 11.9554 48.7366 11.4155L47.7792 11.7041C47.9422 12.2447 48.0593 12.6332 48.145 12.9205L49.1033 12.6348ZM47.5771 13.2777H48.6242V12.2777H47.5771V13.2777ZM46.7525 14.0291C46.7718 13.6198 47.1316 13.2777 47.5771 13.2777V12.2777C46.6343 12.2777 45.7997 13.0034 45.7536 13.9821L46.7525 14.0291ZM41.9535 21.901C41.1764 23.6763 39.3095 24.7309 37.3722 24.4462L37.2269 25.4356C39.6152 25.7865 41.9137 24.4855 42.8696 22.302L41.9535 21.901ZM38.0017 15.8583C41.0993 15.8583 43.1977 19.0552 41.9534 21.9012L42.8697 22.3018C44.4033 18.7941 41.8193 14.8583 38.0017 14.8583V15.8583ZM33.734 20.7927C33.3591 18.1797 35.39 15.8583 38.0017 15.8583V14.8583C34.7828 14.8583 32.2825 17.7175 32.7442 20.9347L33.734 20.7927ZM37.3722 24.4462C35.4857 24.1693 34.0029 22.6649 33.734 20.7926L32.7442 20.9348C33.0755 23.2419 34.8989 25.0939 37.2269 25.4356L37.3722 24.4462ZM16.0016 14.8583C12.7936 14.8583 10.2811 17.7079 10.7441 20.9347L11.734 20.7927C11.358 18.1726 13.3982 15.8583 16.0016 15.8583V14.8583ZM21.2592 20.9346C21.7204 17.7201 19.2229 14.8583 16.0016 14.8583V15.8583C18.6151 15.8583 20.6439 18.1817 20.2693 20.7926L21.2592 20.9346ZM17.9898 25.105C19.7555 24.3888 20.9929 22.7877 21.2592 20.9347L20.2693 20.7925C20.0534 22.295 19.0485 23.5965 17.614 24.1783L17.9898 25.105ZM12.1379 23.8197C13.6415 25.4163 15.9612 25.9279 17.9898 25.105L17.6139 24.1783C15.9698 24.8453 14.0881 24.432 12.8659 23.1341L12.1379 23.8197ZM10.7617 21.0212C10.8152 21.3604 11.0168 22.6293 12.1379 23.8197L12.8659 23.1341C11.9534 22.1653 11.793 21.1407 11.7495 20.8652L10.7617 21.0212ZM11.239 21.3637C11.0844 21.3637 10.9737 21.2944 10.9149 21.2441C10.8587 21.196 10.8265 21.1467 10.812 21.1225C10.7827 21.0739 10.7694 21.0319 10.7662 21.0222C10.7611 21.0062 10.7582 20.9941 10.7571 20.9895C10.7558 20.984 10.7551 20.9804 10.755 20.9798C10.7549 20.9791 10.7553 20.9815 10.7567 20.99C10.758 20.9981 10.7596 21.0078 10.7617 21.0212L11.7495 20.8652C11.7461 20.8439 11.7413 20.8129 11.7365 20.7883C11.7347 20.7789 11.7289 20.7491 11.7181 20.7155C11.7138 20.7024 11.6994 20.6578 11.6691 20.6075C11.6541 20.5824 11.6214 20.5324 11.5646 20.4839C11.5053 20.4332 11.3941 20.3637 11.239 20.3637V21.3637Z" fill="black"/>
</g>
<defs>
<filter id="filter0_d_0_116" x="0.500122" y="0.578735" width="53.024" height="32.9146" filterUnits="userSpaceOnUse" color-interpolation-filters="sRGB">
<feFlood flood-opacity="0" result="BackgroundImageFix"/>
<feColorMatrix in="SourceAlpha" type="matrix" values="0 0 0 0 0 0 0 0 0 0 0 0 0 0 0 0 0 0 127 0" result="hardAlpha"/>
<feOffset dy="4"/>
<feGaussianBlur stdDeviation="2"/>
<feComposite in2="hardAlpha" operator="out"/>
<feColorMatrix type="matrix" values="0 0 0 0 0 0 0 0 0 0 0 0 0 0 0 0 0 0 0.25 0"/>
<feBlend mode="normal" in2="BackgroundImageFix" result="effect1_dropShadow_0_116"/>
<feBlend mode="normal" in="SourceGraphic" in2="effect1_dropShadow_0_116" result="shape"/>
</filter>
</defs>
</svg>
